<?xml version="1.0" encoding="UTF-8"?>
<mxfile host="app.diagrams.net" modified="2024-01-01T00:00:00.000Z" agent="5.0" etag="blt-architecture" version="21.0.0" type="device">
  <diagram name="BLT-Architecture" id="blt-architecture">
    <mxGraphModel dx="1426" dy="794" grid="1" gridSize="10" guides="1" tooltips="1" connect="1" arrows="1" fold="1" page="1" pageScale="1" pageWidth="1169" pageHeight="827" math="0" shadow="0">
      <root>
        <mxCell id="0" />
        <mxCell id="1" parent="0" />
        
        <!-- BLT Container -->
        <mxCell id="blt-container" value="Byte Latent Transformer (BLT)" style="rounded=1;whiteSpace=wrap;html=1;fillColor=#f5f5f5;strokeColor=#666666;fontStyle=1;fontSize=16;" vertex="1" parent="1">
          <mxGeometry x="80" y="40" width="1000" height="740" as="geometry" />
        </mxCell>
        
        <!-- Input Bytes -->
        <mxCell id="input-bytes" value="Input Bytes&#xa;(UTF-8)" style="rounded=0;whiteSpace=wrap;html=1;fillColor=#fff2cc;strokeColor=#d6b656;" vertex="1" parent="1">
          <mxGeometry x="150" y="100" width="120" height="60" as="geometry" />
        </mxCell>
        
        <!-- Entropy Calculator -->
        <mxCell id="entropy-calc" value="Entropy&#xa;Calculator" style="rounded=1;whiteSpace=wrap;html=1;fillColor=#dae8fc;strokeColor=#6c8ebf;" vertex="1" parent="1">
          <mxGeometry x="350" y="100" width="120" height="60" as="geometry" />
        </mxCell>
        
        <!-- Dynamic Patcher -->
        <mxCell id="dynamic-patcher" value="Dynamic&#xa;Patcher" style="rounded=1;whiteSpace=wrap;html=1;fillColor=#dae8fc;strokeColor=#6c8ebf;" vertex="1" parent="1">
          <mxGeometry x="550" y="100" width="120" height="60" as="geometry" />
        </mxCell>
        
        <!-- Local Encoder -->
        <mxCell id="local-encoder" value="Local Encoder&#xa;(Bytes → Patches)" style="rounded=1;whiteSpace=wrap;html=1;fillColor=#d5e8d4;strokeColor=#82b366;fontStyle=1;" vertex="1" parent="1">
          <mxGeometry x="350" y="220" width="320" height="80" as="geometry" />
        </mxCell>
        
        <!-- Patch Embeddings -->
        <mxCell id="patch-embeddings" value="Patch Embeddings&#xa;+ Positional Encoding" style="rounded=1;whiteSpace=wrap;html=1;fillColor=#e1d5e7;strokeColor=#9673a6;" vertex="1" parent="1">
          <mxGeometry x="750" y="220" width="160" height="80" as="geometry" />
        </mxCell>
        
        <!-- Latent Transformer -->
        <mxCell id="latent-transformer" value="Latent Transformer Core&#xa;(Multi-Head Attention + FFN)" style="rounded=1;whiteSpace=wrap;html=1;fillColor=#ffe6cc;strokeColor=#d79b00;fontStyle=1;" vertex="1" parent="1">
          <mxGeometry x="350" y="360" width="320" height="100" as="geometry" />
        </mxCell>
        
        <!-- Local Decoder -->
        <mxCell id="local-decoder" value="Local Decoder&#xa;(Patches → Bytes)" style="rounded=1;whiteSpace=wrap;html=1;fillColor=#d5e8d4;strokeColor=#82b366;fontStyle=1;" vertex="1" parent="1">
          <mxGeometry x="350" y="520" width="320" height="80" as="geometry" />
        </mxCell>
        
        <!-- Output Bytes -->
        <mxCell id="output-bytes" value="Output Bytes&#xa;(UTF-8)" style="rounded=0;whiteSpace=wrap;html=1;fillColor=#fff2cc;strokeColor=#d6b656;" vertex="1" parent="1">
          <mxGeometry x="450" y="660" width="120" height="60" as="geometry" />
        </mxCell>
        
        <!-- Entropy Flow -->
        <mxCell id="entropy-flow" value="Low Entropy&#xa;→ Larger Patches&#xa;&#xa;High Entropy&#xa;→ Smaller Patches" style="text;html=1;strokeColor=none;fillColor=none;align=left;verticalAlign=middle;whiteSpace=wrap;rounded=0;fontSize=11;fontStyle=2;" vertex="1" parent="1">
          <mxGeometry x="730" y="90" width="140" height="80" as="geometry" />
        </mxCell>
        
        <!-- Arrows -->
        <mxCell id="arrow1" style="edgeStyle=orthogonalEdgeStyle;rounded=0;orthogonalLoop=1;jettySize=auto;html=1;" edge="1" parent="1" source="input-bytes" target="entropy-calc">
          <mxGeometry relative="1" as="geometry" />
        </mxCell>
        
        <mxCell id="arrow2" style="edgeStyle=orthogonalEdgeStyle;rounded=0;orthogonalLoop=1;jettySize=auto;html=1;" edge="1" parent="1" source="entropy-calc" target="dynamic-patcher">
          <mxGeometry relative="1" as="geometry" />
        </mxCell>
        
        <mxCell id="arrow3" style="edgeStyle=orthogonalEdgeStyle;rounded=0;orthogonalLoop=1;jettySize=auto;html=1;" edge="1" parent="1" source="dynamic-patcher" target="local-encoder">
          <mxGeometry relative="1" as="geometry" />
        </mxCell>
        
        <mxCell id="arrow4" style="edgeStyle=orthogonalEdgeStyle;rounded=0;orthogonalLoop=1;jettySize=auto;html=1;" edge="1" parent="1" source="local-encoder" target="patch-embeddings">
          <mxGeometry relative="1" as="geometry" />
        </mxCell>
        
        <mxCell id="arrow5" style="edgeStyle=orthogonalEdgeStyle;rounded=0;orthogonalLoop=1;jettySize=auto;html=1;" edge="1" parent="1" source="patch-embeddings" target="latent-transformer">
          <mxGeometry relative="1" as="geometry" />
        </mxCell>
        
        <mxCell id="arrow6" style="edgeStyle=orthogonalEdgeStyle;rounded=0;orthogonalLoop=1;jettySize=auto;html=1;" edge="1" parent="1" source="latent-transformer" target="local-decoder">
          <mxGeometry relative="1" as="geometry" />
        </mxCell>
        
        <mxCell id="arrow7" style="edgeStyle=orthogonalEdgeStyle;rounded=0;orthogonalLoop=1;jettySize=auto;html=1;" edge="1" parent="1" source="local-decoder" target="output-bytes">
          <mxGeometry relative="1" as="geometry" />
        </mxCell>
      </root>
    </mxGraphModel>
  </diagram>
</mxfile>